  0
SECTION
  2
BLOCKS
  0
BLOCK
  8
1
  2
1
 70
64
 10
0.0
 20
0.0
  0
LINE
  8
7
 10
28.70679239588459
 20
48.31565796859621
 11
51.25099242202879
 21
48.31565796859621
  0
TEXT
  8
1
 10
42.22298696150809
 20
47.57943769234024
 40
0.3937007874015748
 50
180.0000050089563
 51
0.0000000000000000
 71
0
  1
Size: 30
  0
TEXT
  8
1
 10
42.22298699936835
 20
47.14636682619852
 40
0.3937007874015748
 50
180.0000050089563
 51
0.0000000000000000
 71
0
  1
Category: Menswear
  0
TEXT
  8
1
 10
42.22298703722861
 20
46.71329596005678
 40
0.3937007874015748
 50
180.0000050089563
 51
0.0000000000000000
 71
0
  1
Piece Name: FRONT
  0
TEXT
  8
1
 10
42.22298692364784
 20
48.01250855848198
 40
0.3937007874015748
 50
180.0000050089563
 51
0.0000000000000000
 71
0
  1
Orientation: Right
  0
TEXT
  8
1
 10
42.22298688578758
 20
48.44557942462370
 40
0.3937007874015748
 50
180.0000050089563
 51
0.0000000000000000
 71
0
  1
Quantity: 1,1
  0
TEXT
  8
1
 10
42.22298684792732
 20
48.87865029076544
 40
0.3937007874015748
 50
180.0000050089563
 51
0.0000000000000000
 71
0
  1
Rotation: 0
  0
TEXT
  8
1
 10
42.22298681006706
 20
49.31172115690716
 40
0.3937007874015748
 50
180.0000050089563
 51
0.0000000000000000
 71
0
  1
Tilt: 0.00
  0
TEXT
  8
1
 10
42.22298677220680
 20
49.74479202304890
 40
0.3937007874015748
 50
180.0000050089563
 51
0.0000000000000000
 71
0
  1
Fold: Y
  0
TEXT
  8
1
 10
42.22298673434654
 20
50.17786288919063
 40
0.3937007874015748
 50
180.0000050089563
 51
0.0000000000000000
 71
0
  1
Material: Self
  0
TEXT
  8
1
 10
42.22298669648628
 20
50.61093375533236
 40
0.3937007874015748
 50
180.0000050089563
 51
0.0000000000000000
 71
0
  1
Area: 2.8757 sq.feet
  0
POLYLINE
  8
1
 66
1
 70
1
  0
VERTEX
  8
1
 10
31.83097924319820
 20
40.30379862124654
  0
VERTEX
  8
1
 10
29.83674896345520
 20
40.91306729605597
  0
VERTEX
  8
1
 10
24.50511331554654
 20
42.54198244302749
  0
VERTEX
  8
1
 10
24.00655961280406
 20
42.57998504783969
  0
VERTEX
  8
1
 10
24.08564821063835
 20
43.61703644680286
 70
8
  0
VERTEX
  8
1
 10
24.13907702853750
 20
44.52892501987203
 70
8
  0
VERTEX
  8
1
 10
24.17645404315975
 20
45.44104037722549
 70
8
  0
VERTEX
  8
1
 10
24.19787915753387
 20
46.35508520172612
 70
8
  0
VERTEX
  8
1
 10
24.20072445294601
 20
47.09391843711565
 70
8
  0
VERTEX
  8
1
 10
24.18752431415143
 20
47.83435731557811
 70
8
  0
VERTEX
  8
1
 10
24.17131758127988
 20
48.29542181316454
 70
8
  0
VERTEX
  8
1
 10
24.15965576133129
 20
48.54966287354475
 70
8
  0
VERTEX
  8
1
 10
24.11858522997124
 20
49.23013470345802
  0
VERTEX
  8
1
 10
24.10150883496570
 20
49.51024356008020
 70
8
  0
VERTEX
  8
1
 10
24.08251552503716
 20
49.79016447670747
 70
8
  0
VERTEX
  8
1
 10
24.06160302957978
 20
50.06996457226585
 70
8
  0
VERTEX
  8
1
 10
24.03875652904591
 20
50.34965967847134
 70
8
  0
VERTEX
  8
1
 10
23.99808421053293
 20
50.81612344279138
 70
8
  0
VERTEX
  8
1
 10
23.95551027634668
 20
51.28216736635864
 70
8
  0
VERTEX
  8
1
 10
23.91087958151059
 20
51.74947323040604
 70
8
  0
VERTEX
  8
1
 10
23.90278727615255
 20
51.83422087599742
  0
VERTEX
  8
1
 10
23.86211316041918
 20
52.33256373869367
  0
VERTEX
  8
1
 10
32.33262080713531
 20
53.02390767208769
  0
VERTEX
  8
1
 10
32.39562156639411
 20
53.03255543180201
 70
8
  0
VERTEX
  8
1
 10
32.48537885829237
 20
53.05033655110720
 70
8
  0
VERTEX
  8
1
 10
32.66177173991087
 20
53.10370122825186
 70
8
  0
VERTEX
  8
1
 10
32.82969531796562
 20
53.17963129054733
 70
8
  0
VERTEX
  8
1
 10
32.98627017036733
 20
53.27683847992125
 70
8
  0
VERTEX
  8
1
 10
33.12882163462000
 20
53.39364132527200
 70
8
  0
VERTEX
  8
1
 10
33.25490162285313
 20
53.52805374389610
 70
8
  0
VERTEX
  8
1
 10
33.31108662469509
 20
53.60116004814261
 70
8
  0
VERTEX
  8
1
 10
33.36236398130590
 20
53.67777701258488
 70
8
  0
VERTEX
  8
1
 10
33.43029660372005
 20
53.79165973506894
 70
8
  0
VERTEX
  8
1
 10
33.53581086821627
 20
53.99142666149659
 70
8
  0
VERTEX
  8
1
 10
33.62803740516406
 20
54.19766974015570
 70
8
  0
VERTEX
  8
1
 10
33.77082932405693
 20
54.62524287076556
 70
8
  0
VERTEX
  8
1
 10
33.84385565800573
 20
55.00878895579638
  0
VERTEX
  8
1
 10
33.98922275959484
 20
55.48719087705751
  0
VERTEX
  8
1
 10
35.23715844511851
 20
55.10799341669653
  0
VERTEX
  8
1
 10
35.40710942059459
 20
55.06724892809429
 70
8
  0
VERTEX
  8
1
 10
37.86095638869910
 20
54.57121455419525
 70
8
  0
VERTEX
  8
1
 10
40.34255614677584
 20
54.23605429538706
 70
8
  0
VERTEX
  8
1
 10
42.74381870585526
 20
54.01394197387847
 70
8
  0
VERTEX
  8
1
 10
45.14901061850592
 20
53.83544243034223
 70
8
  0
VERTEX
  8
1
 10
47.55961135077116
 20
53.70062778205132
 70
8
  0
VERTEX
  8
1
 10
49.97592163274393
 20
53.60958392079663
  0
VERTEX
  8
1
 10
64.64404665995562
 20
52.77400096616750
  0
VERTEX
  8
1
 10
64.71965310541418
 20
52.77473702542036
  0
VERTEX
  8
1
 10
68.85965246518789
 20
52.77717989383069
  0
VERTEX
  8
1
 10
68.86228361286005
 20
48.31809825064822
  0
VERTEX
  8
1
 10
68.86478309515319
 20
44.07316516837502
  0
VERTEX
  8
1
 10
68.89372968610964
 20
43.57400378428892
  0
VERTEX
  8
1
 10
49.99328687505641
 20
42.47797045548492
  0
VERTEX
  8
1
 10
48.12126990908439
 20
42.38760134214103
 70
8
  0
VERTEX
  8
1
 10
46.25486632450504
 20
42.28884054633649
 70
8
  0
VERTEX
  8
1
 10
44.38922460974749
 20
42.18146957709297
 70
8
  0
VERTEX
  8
1
 10
42.52402485640754
 20
42.06546923267557
 70
8
  0
VERTEX
  8
1
 10
40.66651371670015
 20
41.94130716503736
 70
8
  0
VERTEX
  8
1
 10
38.80966715749609
 20
41.80853258230533
 70
8
  0
VERTEX
  8
1
 10
36.95317247967912
 20
41.66711934610014
 70
8
  0
VERTEX
  8
1
 10
35.13500876530926
 20
41.52013651493832
  0
VERTEX
  8
1
 10
32.48181200978825
 20
40.89996042148302
  0
VERTEX
  8
1
 10
31.97707108121667
 20
40.78197972433944
  0
SEQEND
  0
POLYLINE
  8
84
 66
1
 70
1
  0
VERTEX
  8
84
 10
31.83097924319820
 20
40.30379862124654
  0
VERTEX
  8
84
 10
29.83674896345520
 20
40.91306729605597
  0
VERTEX
  8
84
 10
24.50511331554654
 20
42.54198244302749
  0
VERTEX
  8
84
 10
24.00655961280406
 20
42.57998504783969
  0
VERTEX
  8
84
 10
24.08564821063835
 20
43.61703644680286
  0
VERTEX
  8
84
 10
24.13907702853750
 20
44.52892501987203
  0
VERTEX
  8
84
 10
24.17645404315975
 20
45.44104037722549
  0
VERTEX
  8
84
 10
24.19787915753387
 20
46.35508520172612
  0
VERTEX
  8
84
 10
24.20072445294601
 20
47.09391843711565
  0
VERTEX
  8
84
 10
24.18752431415143
 20
47.83435731557811
  0
VERTEX
  8
84
 10
24.17131758127988
 20
48.29542181316454
  0
VERTEX
  8
84
 10
24.15965576133129
 20
48.54966287354475
  0
VERTEX
  8
84
 10
24.11858522997124
 20
49.23013470345802
  0
VERTEX
  8
84
 10
24.10150883496570
 20
49.51024356008020
  0
VERTEX
  8
84
 10
24.08251552503716
 20
49.79016447670747
  0
VERTEX
  8
84
 10
24.06160302957978
 20
50.06996457226585
  0
VERTEX
  8
84
 10
24.03875652904591
 20
50.34965967847134
  0
VERTEX
  8
84
 10
23.99808421053293
 20
50.81612344279138
  0
VERTEX
  8
84
 10
23.95551027634668
 20
51.28216736635864
  0
VERTEX
  8
84
 10
23.91087958151059
 20
51.74947323040604
  0
VERTEX
  8
84
 10
23.90278727615255
 20
51.83422087599742
  0
VERTEX
  8
84
 10
23.86211316041918
 20
52.33256373869367
  0
VERTEX
  8
84
 10
32.33262080713531
 20
53.02390767208769
  0
VERTEX
  8
84
 10
32.39562156639411
 20
53.03255543180201
  0
VERTEX
  8
84
 10
32.48537885829237
 20
53.05033655110720
  0
VERTEX
  8
84
 10
32.66177173991087
 20
53.10370122825186
  0
VERTEX
  8
84
 10
32.82969531796562
 20
53.17963129054733
  0
VERTEX
  8
84
 10
32.98627017036733
 20
53.27683847992125
  0
VERTEX
  8
84
 10
33.12882163462000
 20
53.39364132527200
  0
VERTEX
  8
84
 10
33.25490162285313
 20
53.52805374389610
  0
VERTEX
  8
84
 10
33.31108662469509
 20
53.60116004814261
  0
VERTEX
  8
84
 10
33.36236398130590
 20
53.67777701258488
  0
VERTEX
  8
84
 10
33.43029660372005
 20
53.79165973506894
  0
VERTEX
  8
84
 10
33.53581086821627
 20
53.99142666149659
  0
VERTEX
  8
84
 10
33.62803740516406
 20
54.19766974015570
  0
VERTEX
  8
84
 10
33.77082932405693
 20
54.62524287076556
  0
VERTEX
  8
84
 10
33.84385565800573
 20
55.00878895579638
  0
VERTEX
  8
84
 10
33.98922275959484
 20
55.48719087705751
  0
VERTEX
  8
84
 10
35.23715844511851
 20
55.10799341669653
  0
VERTEX
  8
84
 10
35.40710942059459
 20
55.06724892809429
  0
VERTEX
  8
84
 10
36.62971902723886
 20
54.79810668926257
  0
VERTEX
  8
84
 10
37.86095638869910
 20
54.57121455419525
  0
VERTEX
  8
84
 10
39.09936680476647
 20
54.38605877246155
  0
VERTEX
  8
84
 10
40.34255614677584
 20
54.23605429538706
  0
VERTEX
  8
84
 10
42.74381870585526
 20
54.01394197387847
  0
VERTEX
  8
84
 10
45.14901061850592
 20
53.83544243034223
  0
VERTEX
  8
84
 10
47.55961135077116
 20
53.70062778205132
  0
VERTEX
  8
84
 10
49.97592163274393
 20
53.60958392079663
  0
VERTEX
  8
84
 10
64.64404665995562
 20
52.77400096616750
  0
VERTEX
  8
84
 10
64.71965310541418
 20
52.77473702542036
  0
VERTEX
  8
84
 10
68.85965246518789
 20
52.77717989383069
  0
VERTEX
  8
84
 10
68.86228361286005
 20
48.31809825064822
  0
VERTEX
  8
84
 10
68.86478309515319
 20
44.07316516837502
  0
VERTEX
  8
84
 10
68.89372968610964
 20
43.57400378428892
  0
VERTEX
  8
84
 10
49.99328687505641
 20
42.47797045548492
  0
VERTEX
  8
84
 10
48.12126990908439
 20
42.38760134214103
  0
VERTEX
  8
84
 10
46.25486632450504
 20
42.28884054633649
  0
VERTEX
  8
84
 10
44.38922460974749
 20
42.18146957709297
  0
VERTEX
  8
84
 10
42.52402485640754
 20
42.06546923267557
  0
VERTEX
  8
84
 10
40.66651371670015
 20
41.94130716503736
  0
VERTEX
  8
84
 10
38.80966715749609
 20
41.80853258230533
  0
VERTEX
  8
84
 10
36.95317247967912
 20
41.66711934610014
  0
VERTEX
  8
84
 10
35.13500876530926
 20
41.52013651493832
  0
VERTEX
  8
84
 10
32.48181200978825
 20
40.89996042148302
  0
VERTEX
  8
84
 10
31.97707108121667
 20
40.78197972433944
  0
SEQEND
  0
POLYLINE
  8
14
 66
1
 70
1
  0
VERTEX
  8
14
 10
31.02488325336786
 20
41.07288806222555
  0
VERTEX
  8
14
 10
29.98284148683726
 20
41.39124818975845
  0
VERTEX
  8
14
 10
24.54405828254429
 20
43.05289893403766
  0
VERTEX
  8
14
 10
24.58449704213827
 20
43.58341239303650
 70
8
  0
VERTEX
  8
14
 10
24.63843936351157
 20
44.50406621708091
 70
8
  0
VERTEX
  8
14
 10
24.67617580512020
 20
45.42494857134469
 70
8
  0
VERTEX
  8
14
 10
24.69780872078395
 20
46.34827025398319
 70
8
  0
VERTEX
  8
14
 10
24.70068301460704
 20
47.09740826528395
 70
8
  0
VERTEX
  8
14
 10
24.68733084631393
 20
47.84757623597986
 70
8
  0
VERTEX
  8
14
 10
24.67090061565084
 20
48.31565796859621
 70
8
  0
VERTEX
  8
14
 10
24.65893911879217
 20
48.57618129106429
 70
8
  0
VERTEX
  8
14
 10
24.61766808541799
 20
49.26040462854272
  0
VERTEX
  8
14
 10
24.60047172132165
 20
49.54238553402676
 70
8
  0
VERTEX
  8
14
 10
24.58124663524563
 20
49.82572198464825
 70
8
  0
VERTEX
  8
14
 10
24.56007793877269
 20
50.10894903433085
 70
8
  0
VERTEX
  8
14
 10
24.53698193965539
 20
50.39172581083800
 70
8
  0
VERTEX
  8
14
 10
24.49610267927376
 20
50.86058164262813
 70
8
  0
VERTEX
  8
14
 10
24.45334127502744
 20
51.32867791713350
 70
8
  0
VERTEX
  8
14
 10
24.40861511647839
 20
51.79700563741466
 70
8
  0
VERTEX
  8
14
 10
24.40117692618858
 20
51.87489832714786
  0
VERTEX
  8
14
 10
24.41783437109369
 20
51.87652167372816
  0
VERTEX
  8
14
 10
32.38699600498346
 20
52.52668306114166
  0
VERTEX
  8
14
 10
32.47827261780177
 20
52.53921208816413
 70
8
  0
VERTEX
  8
14
 10
32.60664534039019
 20
52.56464301023858
 70
8
  0
VERTEX
  8
14
 10
32.83791998010813
 20
52.63461123326059
 70
8
  0
VERTEX
  8
14
 10
33.06557010993063
 20
52.73754787109912
 70
8
  0
VERTEX
  8
14
 10
33.27782670451154
 20
52.86932424941775
 70
8
  0
VERTEX
  8
14
 10
33.47107178486434
 20
53.02766408376228
 70
8
  0
VERTEX
  8
14
 10
33.63638016556668
 20
53.20389743832175
 70
8
  0
VERTEX
  8
14
 10
33.71750682705338
 20
53.30945711087885
 70
8
  0
VERTEX
  8
14
 10
33.78511457829255
 20
53.41047442173689
 70
8
  0
VERTEX
  8
14
 10
33.86635187395262
 20
53.54666119133898
 70
8
  0
VERTEX
  8
14
 10
33.98557216339179
 20
53.77237731515051
 70
8
  0
VERTEX
  8
14
 10
34.09450816280057
 20
54.01598719836141
 70
8
  0
VERTEX
  8
14
 10
34.25571628875109
 20
54.49870543358728
 70
8
  0
VERTEX
  8
14
 10
34.32616580549138
 20
54.86223430145444
  0
VERTEX
  8
14
 10
35.10628277912560
 20
54.62518813103203
  0
VERTEX
  8
14
 10
35.29948789864749
 20
54.57904668179949
 70
8
  0
VERTEX
  8
14
 10
37.77787922625873
 20
54.07789380141409
 70
8
  0
VERTEX
  8
14
 10
40.28607251561519
 20
53.73936510869120
 70
8
  0
VERTEX
  8
14
 10
42.70227146910648
 20
53.51569198871099
 70
8
  0
VERTEX
  8
14
 10
45.11654830383698
 20
53.33651812366723
 70
8
  0
VERTEX
  8
14
 10
47.53623918962852
 20
53.20119509059926
 70
8
  0
VERTEX
  8
14
 10
49.95228988558464
 20
53.11016588229833
  0
VERTEX
  8
14
 10
64.63224808997144
 20
52.27386241588066
  0
VERTEX
  8
14
 10
64.71994815015810
 20
52.27471621135088
  0
VERTEX
  8
14
 10
64.72228425156185
 20
48.31565796859621
  0
VERTEX
  8
14
 10
64.72492365525873
 20
43.83309287583734
  0
VERTEX
  8
14
 10
64.70701435771514
 20
43.83328846824450
  0
VERTEX
  8
14
 10
49.96676040908659
 20
42.97726041688693
  0
VERTEX
  8
14
 10
48.09600646534329
 20
42.88696134112714
 70
8
  0
VERTEX
  8
14
 10
46.22729187952993
 20
42.78807827220606
 70
8
  0
VERTEX
  8
14
 10
44.35934243976885
 20
42.68057448822913
 70
8
  0
VERTEX
  8
14
 10
42.49183325401324
 20
42.56443050596479
 70
8
  0
VERTEX
  8
14
 10
40.63200928559577
 20
42.44011383214627
 70
8
  0
VERTEX
  8
14
 10
38.77284829412505
 20
42.30717375324493
 70
8
  0
VERTEX
  8
14
 10
36.91404018918669
 20
42.16558430098979
 70
8
  0
VERTEX
  8
14
 10
35.05753268612416
 20
42.01550446157380
  0
VERTEX
  8
14
 10
32.36800671562435
 20
41.38683653253270
  0
SEQEND
  0
POLYLINE
  8
87
 66
1
 70
1
  0
VERTEX
  8
87
 10
31.02488325336786
 20
41.07288806222555
  0
VERTEX
  8
87
 10
29.98284148683726
 20
41.39124818975845
  0
VERTEX
  8
87
 10
24.54405828254429
 20
43.05289893403766
  0
VERTEX
  8
87
 10
24.58449704213827
 20
43.58341239303650
  0
VERTEX
  8
87
 10
24.63843936351157
 20
44.50406621708091
  0
VERTEX
  8
87
 10
24.67617580512020
 20
45.42494857134469
  0
VERTEX
  8
87
 10
24.69780872078395
 20
46.34827025398319
  0
VERTEX
  8
87
 10
24.70068301460704
 20
47.09740826528395
  0
VERTEX
  8
87
 10
24.68733084631393
 20
47.84757623597986
  0
VERTEX
  8
87
 10
24.67090061565084
 20
48.31565796859621
  0
VERTEX
  8
87
 10
24.65893911879217
 20
48.57618129106429
  0
VERTEX
  8
87
 10
24.61766808541799
 20
49.26040462854272
  0
VERTEX
  8
87
 10
24.60047172132165
 20
49.54238553402676
  0
VERTEX
  8
87
 10
24.58124663524563
 20
49.82572198464825
  0
VERTEX
  8
87
 10
24.56007793877269
 20
50.10894903433085
  0
VERTEX
  8
87
 10
24.53698193965539
 20
50.39172581083800
  0
VERTEX
  8
87
 10
24.49610267927376
 20
50.86058164262813
  0
VERTEX
  8
87
 10
24.45334127502744
 20
51.32867791713350
  0
VERTEX
  8
87
 10
24.40861511647839
 20
51.79700563741466
  0
VERTEX
  8
87
 10
24.40117692618858
 20
51.87489832714786
  0
VERTEX
  8
87
 10
24.41783437109369
 20
51.87652167372816
  0
VERTEX
  8
87
 10
32.38699600498346
 20
52.52668306114166
  0
VERTEX
  8
87
 10
32.47827261780177
 20
52.53921208816413
  0
VERTEX
  8
87
 10
32.60664534039019
 20
52.56464301023858
  0
VERTEX
  8
87
 10
32.83791998010813
 20
52.63461123326059
  0
VERTEX
  8
87
 10
33.06557010993063
 20
52.73754787109912
  0
VERTEX
  8
87
 10
33.27782670451154
 20
52.86932424941775
  0
VERTEX
  8
87
 10
33.47107178486434
 20
53.02766408376228
  0
VERTEX
  8
87
 10
33.63638016556668
 20
53.20389743832175
  0
VERTEX
  8
87
 10
33.71750682705338
 20
53.30945711087885
  0
VERTEX
  8
87
 10
33.78511457829255
 20
53.41047442173689
  0
VERTEX
  8
87
 10
33.86635187395262
 20
53.54666119133898
  0
VERTEX
  8
87
 10
33.98557216339179
 20
53.77237731515051
  0
VERTEX
  8
87
 10
34.09450816280057
 20
54.01598719836141
  0
VERTEX
  8
87
 10
34.25571628875109
 20
54.49870543358728
  0
VERTEX
  8
87
 10
34.32616580549138
 20
54.86223430145444
  0
VERTEX
  8
87
 10
35.10628277912560
 20
54.62518813103203
  0
VERTEX
  8
87
 10
35.29948789864749
 20
54.57904668179949
  0
VERTEX
  8
87
 10
36.53441909428501
 20
54.30751125318083
  0
VERTEX
  8
87
 10
37.77787922625873
 20
54.07789380141409
  0
VERTEX
  8
87
 10
39.02953269599008
 20
53.89075046333458
  0
VERTEX
  8
87
 10
40.28607251561519
 20
53.73936510869120
  0
VERTEX
  8
87
 10
42.70227146910648
 20
53.51569198871099
  0
VERTEX
  8
87
 10
45.11654830383698
 20
53.33651812366723
  0
VERTEX
  8
87
 10
47.53623918962852
 20
53.20119509059926
  0
VERTEX
  8
87
 10
49.95228988558464
 20
53.11016588229833
  0
VERTEX
  8
87
 10
64.63224808997144
 20
52.27386241588066
  0
VERTEX
  8
87
 10
64.71994815015810
 20
52.27471621135088
  0
VERTEX
  8
87
 10
64.72228425156185
 20
48.31565796859621
  0
VERTEX
  8
87
 10
64.72492365525873
 20
43.83309287583734
  0
VERTEX
  8
87
 10
64.70701435771514
 20
43.83328846824450
  0
VERTEX
  8
87
 10
49.96676040908659
 20
42.97726041688693
  0
VERTEX
  8
87
 10
48.09600646534329
 20
42.88696134112714
  0
VERTEX
  8
87
 10
46.22729187952993
 20
42.78807827220606
  0
VERTEX
  8
87
 10
44.35934243976885
 20
42.68057448822913
  0
VERTEX
  8
87
 10
42.49183325401324
 20
42.56443050596479
  0
VERTEX
  8
87
 10
40.63200928559577
 20
42.44011383214627
  0
VERTEX
  8
87
 10
38.77284829412505
 20
42.30717375324493
  0
VERTEX
  8
87
 10
36.91404018918669
 20
42.16558430098979
  0
VERTEX
  8
87
 10
35.05753268612416
 20
42.01550446157380
  0
VERTEX
  8
87
 10
32.36800671562435
 20
41.38683653253270
  0
SEQEND
  0
POINT
  8
2
 10
31.02488325336786
 20
41.07288806222555
  0
TEXT
  8
14
 10
31.02488325336786
 20
41.07288806222555
 40
0.3149606299212598
 50
0.0000000000000000
 51
0.0000000000000000
 71
0
  1
# 1
  0
POINT
  8
2
 10
24.54405828254429
 20
43.05289893403766
  0
TEXT
  8
14
 10
24.54405828254429
 20
43.05289893403766
 40
0.3149606299212598
 50
0.0000000000000000
 51
0.0000000000000000
 71
0
  1
# 2
  0
POINT
  8
3
 10
24.58449704213827
 20
43.58341239303650
  0
POINT
  8
3
 10
24.63843936351157
 20
44.50406621708091
  0
POINT
  8
3
 10
24.67617580512020
 20
45.42494857134469
  0
POINT
  8
3
 10
24.69780872078395
 20
46.34827025398319
  0
POINT
  8
3
 10
24.70068301460704
 20
47.09740826528395
  0
POINT
  8
3
 10
24.68733084631393
 20
47.84757623597986
  0
POINT
  8
3
 10
24.67090061565084
 20
48.31565796859621
  0
TEXT
  8
14
 10
24.67090061565084
 20
48.31565796859621
 40
0.3149606299212598
 50
0.0000000000000000
 51
0.0000000000000000
 71
0
  1
# 3
  0
POINT
  8
3
 10
24.65893911879217
 20
48.57618129106429
  0
POINT
  8
2
 10
24.61766808541799
 20
49.26040462854272
  0
POINT
  8
4
 10
24.56010146701076
 20
43.25704012094767
 30
0.3000000095742894
 50
-4.246763083215700
  0
ATTDEF
  8
14
 10
24.61766808541799
 20
49.26040462854272
 11
24.56010146701076
 21
43.25704012094767
 40
 10
 1
Link:4
 2
Dependency
 3
 
 70
2
 72
3
  0
TEXT
  8
4
 10
24.56010146701076
 20
43.25704012094767
 40
0.3149606299212598
 50
0.0000000000000000
 51
0.0000000000000000
 71
0
  1
# 4
  0
POINT
  8
3
 10
24.60047172132165
 20
49.54238553402676
  0
POINT
  8
3
 10
24.58124663524563
 20
49.82572198464825
  0
POINT
  8
3
 10
24.56007793877269
 20
50.10894903433085
  0
POINT
  8
3
 10
24.53698193965539
 20
50.39172581083800
  0
POINT
  8
3
 10
24.49610267927376
 20
50.86058164262813
  0
POINT
  8
3
 10
24.45334127502744
 20
51.32867791713350
  0
POINT
  8
3
 10
24.40861511647839
 20
51.79700563741466
  0
POINT
  8
2
 10
24.40117692618858
 20
51.87489832714786
  0
TEXT
  8
14
 10
24.40117692618858
 20
51.87489832714786
 40
0.3149606299212598
 50
0.0000000000000000
 51
0.0000000000000000
 71
0
  1
# 5
  0
POINT
  8
2
 10
24.41783437109369
 20
51.87652167372816
  0
TEXT
  8
14
 10
24.41783437109369
 20
51.87652167372816
 40
0.3149606299212598
 50
0.0000000000000000
 51
0.0000000000000000
 71
0
  1
# 6
  0
POINT
  8
2
 10
32.38699600498346
 20
52.52668306114166
  0
TEXT
  8
14
 10
32.38699600498346
 20
52.52668306114166
 40
0.3149606299212598
 50
0.0000000000000000
 51
0.0000000000000000
 71
0
  1
# 7
  0
POINT
  8
3
 10
32.47827261780177
 20
52.53921208816413
  0
POINT
  8
3
 10
32.60664534039019
 20
52.56464301023858
  0
POINT
  8
3
 10
32.83791998010813
 20
52.63461123326059
  0
POINT
  8
3
 10
33.06557010993063
 20
52.73754787109912
  0
POINT
  8
3
 10
33.27782670451154
 20
52.86932424941775
  0
POINT
  8
3
 10
33.47107178486434
 20
53.02766408376228
  0
POINT
  8
3
 10
33.63638016556668
 20
53.20389743832175
  0
POINT
  8
3
 10
33.71750682705338
 20
53.30945711087885
  0
POINT
  8
3
 10
33.78511457829255
 20
53.41047442173689
  0
POINT
  8
3
 10
33.86635187395262
 20
53.54666119133898
  0
POINT
  8
3
 10
33.98557216339179
 20
53.77237731515051
  0
POINT
  8
3
 10
34.09450816280057
 20
54.01598719836141
  0
POINT
  8
3
 10
34.25571628875109
 20
54.49870543358728
  0
POINT
  8
2
 10
34.32616580549138
 20
54.86223430145444
  0
TEXT
  8
14
 10
34.32616580549138
 20
54.86223430145444
 40
0.3149606299212598
 50
0.0000000000000000
 51
0.0000000000000000
 71
0
  1
# 8
  0
POINT
  8
2
 10
35.10628277912560
 20
54.62518813103203
  0
TEXT
  8
14
 10
35.10628277912560
 20
54.62518813103203
 40
0.3149606299212598
 50
0.0000000000000000
 51
0.0000000000000000
 71
0
  1
# 9
  0
POINT
  8
3
 10
35.29948789864749
 20
54.57904668179949
  0
POINT
  8
3
 10
37.77787922625873
 20
54.07789380141409
  0
POINT
  8
3
 10
40.28607251561519
 20
53.73936510869120
  0
POINT
  8
3
 10
42.70227146910648
 20
53.51569198871099
  0
POINT
  8
3
 10
45.11654830383698
 20
53.33651812366723
  0
POINT
  8
3
 10
47.53623918962852
 20
53.20119509059926
  0
POINT
  8
2
 10
49.95228988558464
 20
53.11016588229833
  0
TEXT
  8
14
 10
49.95228988558464
 20
53.11016588229833
 40
0.3149606299212598
 50
0.0000000000000000
 51
0.0000000000000000
 71
0
  1
# 10
  0
POINT
  8
4
 10
49.95228988558464
 20
53.11016588229833
 30
0.3937007874015770
 50
-92.60097260452848
  0
ATTDEF
  8
14
 10
49.95228988558464
 20
53.11016588229833
 11
49.95228988558464
 21
53.11016588229833
 40
 10
 1
Link:4
 2
Dependency
 3
 
 70
2
 72
3
  0
TEXT
  8
4
 10
49.95228988558464
 20
53.11016588229833
 40
0.3149606299212598
 50
0.0000000000000000
 51
0.0000000000000000
 71
0
  1
# 11
  0
POINT
  8
2
 10
64.63224808997144
 20
52.27386241588066
  0
TEXT
  8
14
 10
64.63224808997144
 20
52.27386241588066
 40
0.3149606299212598
 50
0.0000000000000000
 51
0.0000000000000000
 71
0
  1
# 12
  0
POINT
  8
4
 10
64.63224808997144
 20
52.27386241588066
 30
0.3000000095742929
 50
-91.35139133203872
  0
ATTDEF
  8
14
 10
64.63224808997144
 20
52.27386241588066
 11
64.63224808997144
 21
52.27386241588066
 40
 10
 1
Link:4
 2
Dependency
 3
 
 70
2
 72
3
  0
TEXT
  8
4
 10
64.63224808997144
 20
52.27386241588066
 40
0.3149606299212598
 50
0.0000000000000000
 51
0.0000000000000000
 71
0
  1
# 13
  0
POINT
  8
2
 10
64.71994815015810
 20
52.27471621135088
  0
TEXT
  8
14
 10
64.71994815015810
 20
52.27471621135088
 40
0.3149606299212598
 50
0.0000000000000000
 51
0.0000000000000000
 71
0
  1
# 14
  0
POINT
  8
2
 10
64.72228425156185
 20
48.31565796859621
  0
TEXT
  8
14
 10
64.72228425156185
 20
48.31565796859621
 40
0.3149606299212598
 50
0.0000000000000000
 51
0.0000000000000000
 71
0
  1
# 15
  0
POINT
  8
2
 10
64.72492365525873
 20
43.83309287583734
  0
TEXT
  8
14
 10
64.72492365525873
 20
43.83309287583734
 40
0.3149606299212598
 50
0.0000000000000000
 51
0.0000000000000000
 71
0
  1
# 16
  0
POINT
  8
2
 10
64.70701435771514
 20
43.83328846824450
  0
TEXT
  8
14
 10
64.70701435771514
 20
43.83328846824450
 40
0.3149606299212598
 50
0.0000000000000000
 51
0.0000000000000000
 71
0
  1
# 17
  0
POINT
  8
4
 10
64.70701435771514
 20
43.83328846824450
 30
0.3000000095742907
 50
91.34897681546379
  0
ATTDEF
  8
14
 10
64.70701435771514
 20
43.83328846824450
 11
64.70701435771514
 21
43.83328846824450
 40
 10
 1
Link:4
 2
Dependency
 3
 
 70
2
 72
3
  0
TEXT
  8
4
 10
64.70701435771514
 20
43.83328846824450
 40
0.3149606299212598
 50
0.0000000000000000
 51
0.0000000000000000
 71
0
  1
# 18
  0
POINT
  8
2
 10
49.96676040908659
 20
42.97726041688693
  0
TEXT
  8
14
 10
49.96676040908659
 20
42.97726041688693
 40
0.3149606299212598
 50
0.0000000000000000
 51
0.0000000000000000
 71
0
  1
# 19
  0
POINT
  8
4
 10
49.96676040908659
 20
42.97726041688693
 30
0.3937007874015744
 50
93.31547627189263
  0
ATTDEF
  8
14
 10
49.96676040908659
 20
42.97726041688693
 11
49.96676040908659
 21
42.97726041688693
 40
 10
 1
Link:4
 2
Dependency
 3
 
 70
2
 72
3
  0
TEXT
  8
4
 10
49.96676040908659
 20
42.97726041688693
 40
0.3149606299212598
 50
0.0000000000000000
 51
0.0000000000000000
 71
0
  1
# 20
  0
POINT
  8
3
 10
48.09600646534329
 20
42.88696134112714
  0
POINT
  8
3
 10
46.22729187952993
 20
42.78807827220606
  0
POINT
  8
3
 10
44.35934243976885
 20
42.68057448822913
  0
POINT
  8
3
 10
42.49183325401324
 20
42.56443050596479
  0
POINT
  8
3
 10
40.63200928559577
 20
42.44011383214627
  0
POINT
  8
3
 10
38.77284829412505
 20
42.30717375324493
  0
POINT
  8
3
 10
36.91404018918669
 20
42.16558430098979
  0
POINT
  8
2
 10
35.05753268612416
 20
42.01550446157380
  0
TEXT
  8
14
 10
35.05753268612416
 20
42.01550446157380
 40
0.3149606299212598
 50
0.0000000000000000
 51
0.0000000000000000
 71
0
  1
# 21
  0
POINT
  8
4
 10
35.05753268612416
 20
42.01550446157380
 30
0.3000000095742915
 50
98.11718096204221
  0
ATTDEF
  8
14
 10
35.05753268612416
 20
42.01550446157380
 11
35.05753268612416
 21
42.01550446157380
 40
 10
 1
Link:4
 2
Dependency
 3
 
 70
2
 72
3
  0
TEXT
  8
4
 10
35.05753268612416
 20
42.01550446157380
 40
0.3149606299212598
 50
0.0000000000000000
 51
0.0000000000000000
 71
0
  1
# 22
  0
POINT
  8
2
 10
32.36800671562435
 20
41.38683653253270
  0
TEXT
  8
14
 10
32.36800671562435
 20
41.38683653253270
 40
0.3149606299212598
 50
0.0000000000000000
 51
0.0000000000000000
 71
0
  1
# 23
  0
POINT
  8
2
 10
31.83097924319820
 20
40.30379862124654
  0
TEXT
  8
1
 10
31.83097924319820
 20
40.30379862124654
 40
0.3149606299212598
 50
0.0000000000000000
 51
0.0000000000000000
 71
0
  1
# 24
  0
POINT
  8
2
 10
24.50511331554654
 20
42.54198244302749
  0
TEXT
  8
1
 10
24.50511331554654
 20
42.54198244302749
 40
0.3149606299212598
 50
0.0000000000000000
 51
0.0000000000000000
 71
0
  1
# 25
  0
POINT
  8
2
 10
24.00655961280406
 20
42.57998504783969
  0
TEXT
  8
1
 10
24.00655961280406
 20
42.57998504783969
 40
0.3149606299212598
 50
0.0000000000000000
 51
0.0000000000000000
 71
0
  1
# 26
  0
POINT
  8
4
 10
24.06258925330525
 20
43.29525337514520
 30
0.3000000095742891
 50
-4.264900342728038
  0
ATTDEF
  8
1
 10
24.00655961280406
 20
42.57998504783969
 11
24.06258925330525
 21
43.29525337514520
 40
 10
 1
Link:4
 2
Dependency
 3
 
 70
2
 72
3
  0
TEXT
  8
4
 10
24.06258925330525
 20
43.29525337514520
 40
0.3149606299212598
 50
0.0000000000000000
 51
0.0000000000000000
 71
0
  1
# 27
  0
POINT
  8
3
 10
24.08564821063835
 20
43.61703644680286
  0
POINT
  8
3
 10
24.13907702853750
 20
44.52892501987203
  0
POINT
  8
3
 10
24.17645404315975
 20
45.44104037722549
  0
POINT
  8
3
 10
24.19787915753387
 20
46.35508520172612
  0
POINT
  8
3
 10
24.20072445294601
 20
47.09391843711565
  0
POINT
  8
3
 10
24.18752431415143
 20
47.83435731557811
  0
POINT
  8
3
 10
24.17131758127988
 20
48.29542181316454
  0
TEXT
  8
1
 10
24.17131758127988
 20
48.29542181316454
 40
0.3149606299212598
 50
0.0000000000000000
 51
0.0000000000000000
 71
0
  1
# 28
  0
POINT
  8
3
 10
24.15965576133129
 20
48.54966287354475
  0
POINT
  8
3
 10
24.10150883496570
 20
49.51024356008020
  0
POINT
  8
3
 10
24.08251552503716
 20
49.79016447670747
  0
POINT
  8
3
 10
24.06160302957978
 20
50.06996457226585
  0
POINT
  8
3
 10
24.03875652904591
 20
50.34965967847134
  0
POINT
  8
3
 10
23.99808421053293
 20
50.81612344279138
  0
POINT
  8
3
 10
23.95551027634668
 20
51.28216736635864
  0
POINT
  8
3
 10
23.91087958151059
 20
51.74947323040604
  0
POINT
  8
2
 10
23.90278727615255
 20
51.83422087599742
  0
TEXT
  8
1
 10
23.90278727615255
 20
51.83422087599742
 40
0.3149606299212598
 50
0.0000000000000000
 51
0.0000000000000000
 71
0
  1
# 29
  0
POINT
  8
2
 10
23.86211316041918
 20
52.33256373869367
  0
TEXT
  8
1
 10
23.86211316041918
 20
52.33256373869367
 40
0.3149606299212598
 50
0.0000000000000000
 51
0.0000000000000000
 71
0
  1
# 30
  0
POINT
  8
2
 10
32.33262080713531
 20
53.02390767208769
  0
TEXT
  8
1
 10
32.33262080713531
 20
53.02390767208769
 40
0.3149606299212598
 50
0.0000000000000000
 51
0.0000000000000000
 71
0
  1
# 31
  0
POINT
  8
3
 10
32.39562156639411
 20
53.03255543180201
  0
POINT
  8
3
 10
32.48537885829237
 20
53.05033655110720
  0
POINT
  8
3
 10
32.66177173991087
 20
53.10370122825186
  0
POINT
  8
3
 10
32.82969531796562
 20
53.17963129054733
  0
POINT
  8
3
 10
32.98627017036733
 20
53.27683847992125
  0
POINT
  8
3
 10
33.12882163462000
 20
53.39364132527200
  0
POINT
  8
3
 10
33.25490162285313
 20
53.52805374389610
  0
POINT
  8
3
 10
33.31108662469509
 20
53.60116004814261
  0
POINT
  8
3
 10
33.36236398130590
 20
53.67777701258488
  0
POINT
  8
3
 10
33.43029660372005
 20
53.79165973506894
  0
POINT
  8
3
 10
33.53581086821627
 20
53.99142666149659
  0
POINT
  8
3
 10
33.62803740516406
 20
54.19766974015570
  0
POINT
  8
3
 10
33.77082932405693
 20
54.62524287076556
  0
POINT
  8
2
 10
33.84385565800573
 20
55.00878895579638
  0
TEXT
  8
1
 10
33.84385565800573
 20
55.00878895579638
 40
0.3149606299212598
 50
0.0000000000000000
 51
0.0000000000000000
 71
0
  1
# 32
  0
POINT
  8
2
 10
33.98922275959484
 20
55.48719087705751
  0
TEXT
  8
1
 10
33.98922275959484
 20
55.48719087705751
 40
0.3149606299212598
 50
0.0000000000000000
 51
0.0000000000000000
 71
0
  1
# 33
  0
POINT
  8
2
 10
35.23715844511851
 20
55.10799341669653
  0
TEXT
  8
1
 10
35.23715844511851
 20
55.10799341669653
 40
0.3149606299212598
 50
0.0000000000000000
 51
0.0000000000000000
 71
0
  1
# 34
  0
POINT
  8
3
 10
35.40710942059459
 20
55.06724892809429
  0
POINT
  8
3
 10
37.86095638869910
 20
54.57121455419525
  0
POINT
  8
3
 10
40.34255614677584
 20
54.23605429538706
  0
POINT
  8
3
 10
42.74381870585526
 20
54.01394197387847
  0
POINT
  8
3
 10
45.14901061850592
 20
53.83544243034223
  0
POINT
  8
3
 10
47.55961135077116
 20
53.70062778205132
  0
POINT
  8
2
 10
49.97592163274393
 20
53.60958392079663
  0
TEXT
  8
1
 10
49.97592163274393
 20
53.60958392079663
 40
0.3149606299212598
 50
0.0000000000000000
 51
0.0000000000000000
 71
0
  1
# 35
  0
POINT
  8
4
 10
49.97592163274393
 20
53.60958392079663
 30
0.3937007874015720
 50
-92.60085551948652
  0
ATTDEF
  8
1
 10
49.97592163274393
 20
53.60958392079663
 11
49.97592163274393
 21
53.60958392079663
 40
 10
 1
Link:4
 2
Dependency
 3
 
 70
2
 72
3
  0
TEXT
  8
4
 10
49.97592163274393
 20
53.60958392079663
 40
0.3149606299212598
 50
0.0000000000000000
 51
0.0000000000000000
 71
0
  1
# 36
  0
POINT
  8
2
 10
64.64404665995562
 20
52.77400096616750
  0
TEXT
  8
1
 10
64.64404665995562
 20
52.77400096616750
 40
0.3149606299212598
 50
0.0000000000000000
 51
0.0000000000000000
 71
0
  1
# 37
  0
POINT
  8
4
 10
64.64404665995562
 20
52.77400096616750
 30
0.3000000095742903
 50
-91.35130102790127
  0
ATTDEF
  8
1
 10
64.64404665995562
 20
52.77400096616750
 11
64.64404665995562
 21
52.77400096616750
 40
 10
 1
Link:4
 2
Dependency
 3
 
 70
2
 72
3
  0
TEXT
  8
4
 10
64.64404665995562
 20
52.77400096616750
 40
0.3149606299212598
 50
0.0000000000000000
 51
0.0000000000000000
 71
0
  1
# 38
  0
POINT
  8
2
 10
64.71965310541418
 20
52.77473702542036
  0
TEXT
  8
1
 10
64.71965310541418
 20
52.77473702542036
 40
0.3149606299212598
 50
0.0000000000000000
 51
0.0000000000000000
 71
0
  1
# 39
  0
POINT
  8
2
 10
68.85965246518789
 20
52.77717989383069
  0
TEXT
  8
1
 10
68.85965246518789
 20
52.77717989383069
 40
0.3149606299212598
 50
0.0000000000000000
 51
0.0000000000000000
 71
0
  1
# 40
  0
POINT
  8
2
 10
68.86228361286005
 20
48.31809825064822
  0
TEXT
  8
1
 10
68.86228361286005
 20
48.31809825064822
 40
0.3149606299212598
 50
0.0000000000000000
 51
0.0000000000000000
 71
0
  1
# 41
  0
POINT
  8
2
 10
68.86478309515319
 20
44.07316516837502
  0
TEXT
  8
1
 10
68.86478309515319
 20
44.07316516837502
 40
0.3149606299212598
 50
0.0000000000000000
 51
0.0000000000000000
 71
0
  1
# 42
  0
POINT
  8
2
 10
68.89372968610964
 20
43.57400378428892
  0
TEXT
  8
1
 10
68.89372968610964
 20
43.57400378428892
 40
0.3149606299212598
 50
0.0000000000000000
 51
0.0000000000000000
 71
0
  1
# 43
  0
POINT
  8
4
 10
64.71882123583153
 20
43.33190158319476
 30
0.3000000095742862
 50
91.31885519241007
  0
ATTDEF
  8
1
 10
68.89372968610964
 20
43.57400378428892
 11
64.71882123583153
 21
43.33190158319476
 40
 10
 1
Link:4
 2
Dependency
 3
 
 70
2
 72
3
  0
TEXT
  8
4
 10
64.71882123583153
 20
43.33190158319476
 40
0.3149606299212598
 50
0.0000000000000000
 51
0.0000000000000000
 71
0
  1
# 44
  0
POINT
  8
2
 10
49.99328687505641
 20
42.47797045548492
  0
TEXT
  8
1
 10
49.99328687505641
 20
42.47797045548492
 40
0.3149606299212598
 50
0.0000000000000000
 51
0.0000000000000000
 71
0
  1
# 45
  0
POINT
  8
4
 10
49.99328687505641
 20
42.47797045548492
 30
0.3937007874015737
 50
93.31321851955468
  0
ATTDEF
  8
1
 10
49.99328687505641
 20
42.47797045548492
 11
49.99328687505641
 21
42.47797045548492
 40
 10
 1
Link:4
 2
Dependency
 3
 
 70
2
 72
3
  0
TEXT
  8
4
 10
49.99328687505641
 20
42.47797045548492
 40
0.3149606299212598
 50
0.0000000000000000
 51
0.0000000000000000
 71
0
  1
# 46
  0
POINT
  8
3
 10
48.12126990908439
 20
42.38760134214103
  0
POINT
  8
3
 10
46.25486632450504
 20
42.28884054633649
  0
POINT
  8
3
 10
44.38922460974749
 20
42.18146957709297
  0
POINT
  8
3
 10
42.52402485640754
 20
42.06546923267557
  0
POINT
  8
3
 10
40.66651371670015
 20
41.94130716503736
  0
POINT
  8
3
 10
38.80966715749609
 20
41.80853258230533
  0
POINT
  8
3
 10
36.95317247967912
 20
41.66711934610014
  0
POINT
  8
2
 10
35.13500876530926
 20
41.52013651493832
  0
TEXT
  8
1
 10
35.13500876530926
 20
41.52013651493832
 40
0.3149606299212598
 50
0.0000000000000000
 51
0.0000000000000000
 71
0
  1
# 47
  0
POINT
  8
4
 10
35.13500876530926
 20
41.52013651493832
 30
0.3000000095742912
 50
98.11697843395920
  0
ATTDEF
  8
1
 10
35.13500876530926
 20
41.52013651493832
 11
35.13500876530926
 21
41.52013651493832
 40
 10
 1
Link:4
 2
Dependency
 3
 
 70
2
 72
3
  0
TEXT
  8
4
 10
35.13500876530926
 20
41.52013651493832
 40
0.3149606299212598
 50
0.0000000000000000
 51
0.0000000000000000
 71
0
  1
# 48
  0
POINT
  8
2
 10
32.48181200978825
 20
40.89996042148302
  0
TEXT
  8
1
 10
32.48181200978825
 20
40.89996042148302
 40
0.3149606299212598
 50
0.0000000000000000
 51
0.0000000000000000
 71
0
  1
# 49
  0
POINT
  8
2
 10
31.97707108121667
 20
40.78197972433944
  0
TEXT
  8
1
 10
31.97707108121667
 20
40.78197972433944
 40
0.3149606299212598
 50
0.0000000000000000
 51
0.0000000000000000
 71
0
  1
# 50
  0
POLYLINE
  8
8
 66
1
 70
0
  0
VERTEX
  8
8
 10
35.10628277912560
 20
54.62518813103203
  0
VERTEX
  8
8
 10
35.05753268612416
 20
42.01550446157380
  0
SEQEND
  0
POLYLINE
  8
85
 66
1
 70
1
  0
VERTEX
  8
85
 10
35.10628277912560
 20
54.62518813103203
  0
VERTEX
  8
85
 10
35.05753268612416
 20
42.01550446157380
  0
SEQEND
  0
POINT
  8
2
 10
35.10628277912560
 20
54.62518813103203
  0
TEXT
  8
8
 10
35.10628277912560
 20
54.62518813103203
 40
0.3149606299212598
 50
0.0000000000000000
 51
0.0000000000000000
 71
0
  1
# 51
  0
POINT
  8
2
 10
35.05753268612416
 20
42.01550446157380
  0
TEXT
  8
8
 10
35.05753268612416
 20
42.01550446157380
 40
0.3149606299212598
 50
0.0000000000000000
 51
0.0000000000000000
 71
0
  1
# 52
  0
POLYLINE
  8
8
 66
1
 70
0
  0
VERTEX
  8
8
 10
49.95228988558464
 20
53.11016588229833
  0
VERTEX
  8
8
 10
49.96676040908659
 20
42.97726041688693
  0
SEQEND
  0
POLYLINE
  8
85
 66
1
 70
1
  0
VERTEX
  8
85
 10
49.95228988558464
 20
53.11016588229833
  0
VERTEX
  8
85
 10
49.96676040908659
 20
42.97726041688693
  0
SEQEND
  0
POINT
  8
2
 10
49.95228988558464
 20
53.11016588229833
  0
TEXT
  8
8
 10
49.95228988558464
 20
53.11016588229833
 40
0.3149606299212598
 50
0.0000000000000000
 51
0.0000000000000000
 71
0
  1
# 53
  0
POINT
  8
2
 10
49.96676040908659
 20
42.97726041688693
  0
TEXT
  8
8
 10
49.96676040908659
 20
42.97726041688693
 40
0.3149606299212598
 50
0.0000000000000000
 51
0.0000000000000000
 71
0
  1
# 54
  0
POLYLINE
  8
8
 66
1
 70
0
  0
VERTEX
  8
8
 10
32.38699600498346
 20
52.52668306114166
  0
VERTEX
  8
8
 10
32.36800671562435
 20
41.38683653253270
  0
SEQEND
  0
POLYLINE
  8
85
 66
1
 70
1
  0
VERTEX
  8
85
 10
32.38699600498346
 20
52.52668306114166
  0
VERTEX
  8
85
 10
32.36800671562435
 20
41.38683653253270
  0
SEQEND
  0
POINT
  8
2
 10
32.38699600498346
 20
52.52668306114166
  0
TEXT
  8
8
 10
32.38699600498346
 20
52.52668306114166
 40
0.3149606299212598
 50
0.0000000000000000
 51
0.0000000000000000
 71
0
  1
# 55
  0
POINT
  8
2
 10
32.36800671562435
 20
41.38683653253270
  0
TEXT
  8
8
 10
32.36800671562435
 20
41.38683653253270
 40
0.3149606299212598
 50
0.0000000000000000
 51
0.0000000000000000
 71
0
  1
# 56
  0
TEXT
  8
15
 10
49.66300003171905
 20
47.18958638628062
 40
0.3937007874015747
 50
90.00000250447816
 51
0.0000000000000000
 71
0
  1
Front Knee Width
  0
TEXT
  8
15
 10
49.66300003171905
 20
47.18958638628062
 40
0.3149606299212598
 50
0.0000000000000000
 51
0.0000000000000000
 71
0
  1
# 57
  0
TEXT
  8
15
 10
34.81473246897299
 20
45.40195616993743
 40
0.3937007874015747
 50
90.00000250447816
 51
0.0000000000000000
 71
0
  1
Front Hip Width
  0
TEXT
  8
15
 10
34.81473246897299
 20
45.40195616993743
 40
0.3149606299212598
 50
0.0000000000000000
 51
0.0000000000000000
 71
0
  1
# 58
  0
TEXT
  8
15
 10
31.82318980299581
 20
45.14658171204496
 40
0.3937007874015747
 50
90.00000250447816
 51
0.0000000000000000
 71
0
  1
Front Mid Hip Width
  0
TEXT
  8
15
 10
31.82318980299581
 20
45.14658171204496
 40
0.3149606299212598
 50
0.0000000000000000
 51
0.0000000000000000
 71
0
  1
# 59
  0
POLYLINE
  8
8
 66
1
 70
0
  0
VERTEX
  8
8
 10
24.67090061565084
 20
48.31565796859621
  0
VERTEX
  8
8
 10
64.72228425156185
 20
48.31565796859621
  0
SEQEND
  0
POLYLINE
  8
85
 66
1
 70
1
  0
VERTEX
  8
85
 10
24.67090061565084
 20
48.31565796859621
  0
VERTEX
  8
85
 10
64.72228425156185
 20
48.31565796859621
  0
SEQEND
  0
POINT
  8
2
 10
24.67090061565084
 20
48.31565796859621
  0
TEXT
  8
8
 10
24.67090061565084
 20
48.31565796859621
 40
0.3149606299212598
 50
0.0000000000000000
 51
0.0000000000000000
 71
0
  1
# 60
  0
POINT
  8
2
 10
64.72228425156185
 20
48.31565796859621
  0
TEXT
  8
8
 10
64.72228425156185
 20
48.31565796859621
 40
0.3149606299212598
 50
0.0000000000000000
 51
0.0000000000000000
 71
0
  1
# 61
  0
TEXT
  8
15
 10
54.23917995663140
 20
48.32661846491295
 40
0.3937007874015748
 50
0.0000000000000000
 51
0.0000000000000000
 71
0
  1
Front Trouser Length
  0
TEXT
  8
15
 10
54.23917995663140
 20
48.32661846491295
 40
0.3149606299212598
 50
0.0000000000000000
 51
0.0000000000000000
 71
0
  1
# 62
  0
ENDBLK
  0
ENDSEC
  0
SECTION
  2
ENTITIES
  0
INSERT
  8
1
  2
1
 10
0.0
 20
0.0
  0
TEXT
  8
1
 10
22.16881539408616
 20
39.36911185426036
 40
0.3149606299212598
 50
0.0000000000000000
 51
0.0000000000000000
 71
0
  1
Style Name: Flat Front Trouser
  0
TEXT
  8
1
 10
22.16881539408616
 20
39.05415122433910
 40
0.3149606299212598
 50
0.0000000000000000
 51
0.0000000000000000
 71
0
  1
Grade Rule Table: FlFrTrouser_Size30_FRONT
  0
TEXT
  8
1
 10
22.16881539408616
 20
38.73919059441784
 40
0.3149606299212598
 50
0.0000000000000000
 51
0.0000000000000000
 71
0
  1
Sample Size: 30
  0
TEXT
  8
1
 10
22.16881539408616
 20
38.42422996449658
 40
0.3149606299212598
 50
0.0000000000000000
 51
0.0000000000000000
 71
0
  1
Units: ENGLISH
  0
TEXT
  8
1
 10
22.16881539408616
 20
37.79430870465406
 40
0.3149606299212598
 50
0.0000000000000000
 51
0.0000000000000000
 71
0
  1
Creation Date: 26-07-2024
  0
TEXT
  8
1
 10
22.16881539408616
 20
37.47934807473280
 40
0.3149606299212598
 50
0.0000000000000000
 51
0.0000000000000000
 71
0
  1
Creation Time: 16:17
  0
TEXT
  8
1
 10
22.16881539408616
 20
37.16438744481155
 40
0.3149606299212598
 50
0.0000000000000000
 51
0.0000000000000000
 71
0
  1
Author: Optitex; 24.0.0.0
  0
TEXT
  8
1
 10
22.16881539408616
 20
36.84942681489028
 40
0.3149606299212598
 50
0.0000000000000000
 51
0.0000000000000000
 71
0
  1
Curve Tolerance: 0.01312
  0
TEXT
  8
1
 10
22.16881539408616
 20
38.10926933457532
 40
0.3149606299212598
 50
0.0000000000000000
 51
0.0000000000000000
 71
0
  1
ASTM/DXF: 1
  0
ENDSEC
  0
EOF
